<svg xmlns="http://www.w3.org/2000/svg" viewBox="0 -4 200 264" width="200" height="264">
      <ellipse cx="80" cy="246" rx="17" ry="9" fill="#6FB644" stroke="#2B2B2B" stroke-width="3"/>
    <ellipse cx="120" cy="246" rx="17" ry="9" fill="#6FB644" stroke="#2B2B2B" stroke-width="3"/>
      <path d="M68,175 Q53,142 38,150" fill="none" stroke="#2B2B2B" stroke-width="13" stroke-linecap="round"/>
    <path d="M68,175 Q53,142 38,150" fill="none" stroke="#9BD16B" stroke-width="7" stroke-linecap="round"/><path d="M132,175 Q147,142 162,150" fill="none" stroke="#2B2B2B" stroke-width="13" stroke-linecap="round"/>
    <path d="M132,175 Q147,142 162,150" fill="none" stroke="#9BD16B" stroke-width="7" stroke-linecap="round"/>
      <rect x="64" y="110" width="72" height="132" rx="30" fill="#9BD16B" stroke="#2B2B2B" stroke-width="4"/>
      <circle cx="52" cy="92" r="36" fill="#3F9B3A" stroke="#2B2B2B" stroke-width="4"/><circle cx="148" cy="92" r="36" fill="#3F9B3A" stroke="#2B2B2B" stroke-width="4"/><circle cx="75" cy="60" r="38" fill="#3F9B3A" stroke="#2B2B2B" stroke-width="4"/><circle cx="125" cy="60" r="38" fill="#3F9B3A" stroke="#2B2B2B" stroke-width="4"/><circle cx="100" cy="45" r="36" fill="#3F9B3A" stroke="#2B2B2B" stroke-width="4"/><circle cx="100" cy="92" r="40" fill="#3F9B3A" stroke="#2B2B2B" stroke-width="4"/>
      <circle cx="43" cy="83" r="16.2" fill="#5DBB4F"/><circle cx="139" cy="83" r="16.2" fill="#5DBB4F"/><circle cx="65.5" cy="50.5" r="17.1" fill="#5DBB4F"/><circle cx="115.5" cy="50.5" r="17.1" fill="#5DBB4F"/><circle cx="91" cy="36" r="16.2" fill="#5DBB4F"/><circle cx="90" cy="82" r="18" fill="#5DBB4F"/>
      
    <ellipse cx="81.95" cy="158" rx="11.399999999999999" ry="13.299999999999999" fill="#fff" stroke="#2B2B2B" stroke-width="2.375"/>
    <circle cx="81.95" cy="159.9" r="6.6499999999999995" fill="#2B2B2B"/>
    <circle cx="84.325" cy="156.575" r="2.4699999999999998" fill="#fff"/>
    <ellipse cx="118.05" cy="158" rx="11.399999999999999" ry="13.299999999999999" fill="#fff" stroke="#2B2B2B" stroke-width="2.375"/>
    <circle cx="118.05" cy="159.9" r="6.6499999999999995" fill="#2B2B2B"/>
    <circle cx="120.425" cy="156.575" r="2.4699999999999998" fill="#fff"/><ellipse cx="68.65" cy="177" rx="8.549999999999999" ry="5.225" fill="#FF7B9C" opacity=".55"/>
    <ellipse cx="131.35" cy="177" rx="8.549999999999999" ry="5.225" fill="#FF7B9C" opacity=".55"/><path d="M85.75,177 Q100,197.9 114.25,177 Z" fill="#7A2E2E" stroke="#2B2B2B" stroke-width="2.8499999999999996" stroke-linejoin="round"/>
    <path d="M93.35,185.55 Q100,181.75 106.65,185.55 Q100,191.25 93.35,185.55 Z" fill="#FF8C8C"/></svg>